<?xml version="1.0" encoding="iso-8859-1"?>
<!-- Generator: Adobe Illustrator 18.0.0, SVG Export Plug-In . SVG Version: 6.00 Build 0)  -->
<!DOCTYPE svg PUBLIC "-//W3C//DTD SVG 1.1//EN" "http://www.w3.org/Graphics/SVG/1.1/DTD/svg11.dtd">
<svg xmlns="http://www.w3.org/2000/svg" xmlns:xlink="http://www.w3.org/1999/xlink" version="1.1" id="Capa_1" x="0px" y="0px" viewBox="0 0 483.542 483.542" style="enable-background:new 0 0 483.542 483.542;" xml:space="preserve" width="512px" height="512px">
<g>
	<path d="M240.219,365.397c-29.325,0-53.184,22.21-53.184,49.509c0,12.964,7.64,20.705,20.436,20.705   c5.877,0,12.325-1.494,18.561-2.938c5.16-1.195,10.496-2.432,14.187-2.432c3.213,0,8.282,1.182,13.185,2.325   c6.422,1.497,13.061,3.046,19.187,3.045c13.033-0.001,20.814-7.741,20.814-20.705C293.404,387.607,269.545,365.397,240.219,365.397   z M275.898,418.089c-0.007,0.005-0.727,0.521-3.31,0.521c-4.17,0-9.841-1.322-15.325-2.601c-6.107-1.424-11.876-2.769-17.045-2.769   c-5.633,0-11.932,1.459-18.023,2.87c-5.305,1.229-10.791,2.5-14.725,2.5c-2.148,0-2.882-0.39-2.912-0.39l-0.001,0   c-0.038-0.059-0.523-0.857-0.523-3.315c0-17.925,16.232-32.509,36.184-32.509c19.953,0,36.186,14.583,36.186,32.509   C276.404,416.991,276.017,417.938,275.898,418.089z" fill="#FFFFFF"/>
	<path d="M213.754,349.163c0-14.963-10.379-27.136-23.137-27.136c-12.759,0-23.139,12.173-23.139,27.136s10.38,27.136,23.139,27.136   C203.375,376.299,213.754,364.125,213.754,349.163z M184.479,349.163c0-5.801,3.241-10.136,6.139-10.136   c2.896,0,6.137,4.334,6.137,10.136s-3.24,10.136-6.137,10.136C187.72,359.299,184.479,354.964,184.479,349.163z" fill="#FFFFFF"/>
	<path d="M241.76,359.518c12.759,0,23.139-12.173,23.139-27.136c0-14.963-10.38-27.136-23.139-27.136   c-12.758,0-23.137,12.173-23.137,27.136C218.623,347.344,229.002,359.518,241.76,359.518z M241.76,322.246   c2.897,0,6.139,4.335,6.139,10.136c0,5.801-3.241,10.136-6.139,10.136c-2.896,0-6.137-4.335-6.137-10.136   C235.623,326.58,238.863,322.246,241.76,322.246z" fill="#FFFFFF"/>
	<path d="M292.904,322.027c-12.759,0-23.139,12.173-23.139,27.136s10.38,27.136,23.139,27.136s23.139-12.173,23.139-27.136   S305.663,322.027,292.904,322.027z M292.904,359.299c-2.897,0-6.139-4.335-6.139-10.136s3.241-10.136,6.139-10.136   c2.897,0,6.139,4.334,6.139,10.136S295.802,359.299,292.904,359.299z" fill="#FFFFFF"/>
	<path d="M483.542,216.753c0-1.5-0.389-2.909-1.07-4.132L392.997,22.392c-1.401-2.98-4.398-4.882-7.691-4.882H98.215   c-3.293,0-6.29,1.902-7.691,4.882L0.809,213.135c-0.541,1.15-0.792,2.386-0.792,3.618H0v197.78c0,28.397,23.103,51.5,51.5,51.5   h380.522c28.397,0,51.5-23.103,51.5-51.5V217.159C483.527,217.023,483.542,216.89,483.542,216.753z M103.61,34.51h276.3   l11.242,23.903H92.368L103.61,34.51z M84.375,75.406c0.042,0.001,0.083,0.006,0.125,0.006h314.648l62.481,132.84H358.664   c-4.694,0-8.5,3.806-8.5,8.5v44.154c0,7.68-6.248,13.929-13.929,13.929H147.284c-7.681,0-13.929-6.249-13.929-13.929v-44.154   c0-4.694-3.806-8.5-8.5-8.5H21.892L84.375,75.406z M432.022,449.032H51.5c-19.023,0-34.5-15.477-34.5-34.5v-189.28h99.355v35.654   c0,17.054,13.875,30.929,30.929,30.929h188.951c17.054,0,30.929-13.875,30.929-30.929v-35.654h99.358v189.28   C466.522,433.556,451.045,449.032,432.022,449.032z" fill="#FFFFFF"/>
	<path d="M132.305,116.679h35.887c4.694,0,8.5-3.806,8.5-8.5c0-4.694-3.806-8.5-8.5-8.5h-35.887c-4.694,0-8.5,3.806-8.5,8.5   C123.805,112.874,127.61,116.679,132.305,116.679z" fill="#FFFFFF"/>
	<path d="M105.39,161.059H93.055c-4.694,0-8.5,3.806-8.5,8.5c0,4.694,3.806,8.5,8.5,8.5h12.335c4.694,0,8.5-3.806,8.5-8.5   C113.89,164.864,110.084,161.059,105.39,161.059z" fill="#FFFFFF"/>
	<path d="M387.055,178.059h12.335c4.694,0,8.5-3.806,8.5-8.5c0-4.694-3.806-8.5-8.5-8.5h-12.335c-4.694,0-8.5,3.806-8.5,8.5   C378.555,174.253,382.36,178.059,387.055,178.059z" fill="#FFFFFF"/>
	<path d="M170.999,139.858c0,4.694,3.806,8.5,8.5,8.5h32.521c4.694,0,8.5-3.806,8.5-8.5s-3.806-8.5-8.5-8.5h-32.521   C174.805,131.358,170.999,135.164,170.999,139.858z" fill="#FFFFFF"/>
	<path d="M340.893,112.193h12.337c4.694,0,8.5-3.806,8.5-8.5c0-4.694-3.806-8.5-8.5-8.5h-12.337c-4.694,0-8.5,3.806-8.5,8.5   C332.393,108.388,336.199,112.193,340.893,112.193z" fill="#FFFFFF"/>
	<path d="M270.15,204.038h26.914c4.694,0,8.5-3.806,8.5-8.5s-3.806-8.5-8.5-8.5H270.15c-4.694,0-8.5,3.806-8.5,8.5   S265.456,204.038,270.15,204.038z" fill="#FFFFFF"/>
	<path d="M228.304,250.536h26.914c4.694,0,8.5-3.806,8.5-8.5c0-4.694-3.806-8.5-8.5-8.5h-26.914c-4.694,0-8.5,3.806-8.5,8.5   C219.804,246.73,223.609,250.536,228.304,250.536z" fill="#FFFFFF"/>
	<path d="M283.979,142.751h21.307c4.694,0,8.5-3.806,8.5-8.5c0-4.694-3.806-8.5-8.5-8.5h-21.307c-4.694,0-8.5,3.806-8.5,8.5   C275.479,138.945,279.285,142.751,283.979,142.751z" fill="#FFFFFF"/>
	<path d="M172.584,190.402h-10.093c-4.694,0-8.5,3.806-8.5,8.5c0,4.694,3.806,8.5,8.5,8.5h10.093c4.694,0,8.5-3.806,8.5-8.5   C181.084,194.208,177.278,190.402,172.584,190.402z" fill="#FFFFFF"/>
</g>
<g>
</g>
<g>
</g>
<g>
</g>
<g>
</g>
<g>
</g>
<g>
</g>
<g>
</g>
<g>
</g>
<g>
</g>
<g>
</g>
<g>
</g>
<g>
</g>
<g>
</g>
<g>
</g>
<g>
</g>
</svg>
